<?xml version="1.0" encoding="UTF-8"?>
<svg width="456px" height="243px" viewBox="0 0 456 243" version="1.1" xmlns="http://www.w3.org/2000/svg" xmlns:xlink="http://www.w3.org/1999/xlink">
    <title>Group 21 Copy</title>
    <defs>
        <path d="M10.2555408,23 L307.744459,23 C311.310534,23 312.603679,23.3713024 313.907383,24.0685308 C315.211087,24.7657592 316.234241,25.7889135 316.931469,27.0926172 C317.628698,28.3963209 318,29.6894658 318,33.2555408 L318,209.744459 C318,213.310534 317.628698,214.603679 316.931469,215.907383 C316.234241,217.211087 315.211087,218.234241 313.907383,218.931469 C312.603679,219.628698 311.310534,220 307.744459,220 L10.2555408,220 C6.68946584,220 5.39632089,219.628698 4.09261719,218.931469 C2.78891348,218.234241 1.76575919,217.211087 1.06853082,215.907383 C0.371302445,214.603679 1.60494146e-16,213.310534 -2.76224082e-16,209.744459 L2.76224082e-16,33.2555408 C-1.60494146e-16,29.6894658 0.371302445,28.3963209 1.06853082,27.0926172 C1.76575919,25.7889135 2.78891348,24.7657592 4.09261719,24.0685308 C5.39632089,23.3713024 6.68946584,23 10.2555408,23 Z" id="path-1"></path>
        <path d="M17.5374834,12 L350.462517,12 C354.474351,12 355.929139,12.4177153 357.395806,13.2020972 C358.862472,13.9864791 360.013521,15.1375277 360.797903,16.6041943 C361.582285,18.070861 362,19.5256491 362,23.5374834 L362,219.462517 C362,223.474351 361.582285,224.929139 360.797903,226.395806 C360.013521,227.862472 358.862472,229.013521 357.395806,229.797903 C355.929139,230.582285 354.474351,231 350.462517,231 L17.5374834,231 C13.5256491,231 12.070861,230.582285 10.6041943,229.797903 C9.13752767,229.013521 7.98647908,227.862472 7.20209717,226.395806 C6.41771525,224.929139 6,223.474351 6,219.462517 L6,23.5374834 C6,19.5256491 6.41771525,18.070861 7.20209717,16.6041943 C7.98647908,15.1375277 9.13752767,13.9864791 10.6041943,13.2020972 C12.070861,12.4177153 13.5256491,12 17.5374834,12 Z" id="path-3"></path>
        <path d="M25.819426,-5.17920154e-16 L443.180574,5.17920154e-16 C447.638168,-3.00926524e-16 449.254599,0.464128056 450.884229,1.33566352 C452.513858,2.20719898 453.792801,3.48614185 454.664336,5.11577148 C455.535872,6.74540111 456,8.3618323 456,12.819426 L456,230.180574 C456,234.638168 455.535872,236.254599 454.664336,237.884229 C453.792801,239.513858 452.513858,240.792801 450.884229,241.664336 C449.254599,242.535872 447.638168,243 443.180574,243 L25.819426,243 C21.3618323,243 19.7454011,242.535872 18.1157715,241.664336 C16.4861419,240.792801 15.207199,239.513858 14.3356635,237.884229 C13.4641281,236.254599 13,234.638168 13,230.180574 L13,12.819426 C13,8.3618323 13.4641281,6.74540111 14.3356635,5.11577148 C15.207199,3.48614185 16.4861419,2.20719898 18.1157715,1.33566352 C19.7454011,0.464128056 21.3618323,3.00926524e-16 25.819426,-5.17920154e-16 Z" id="path-5"></path>
    </defs>
    <g id="Symbols" stroke="none" stroke-width="1" fill="none" fill-rule="evenodd">
        <g id="Oval">
            <mask id="mask-2" fill="white">
                <use xlink:href="#path-1"></use>
            </mask>
            <use id="Combined-Shape-Copy-2" fill="#AACFDD" xlink:href="#path-1"></use>
            <mask id="mask-4" fill="white">
                <use xlink:href="#path-3"></use>
            </mask>
            <use id="Combined-Shape" fill="#FD875E" xlink:href="#path-3"></use>
            <mask id="mask-6" fill="white">
                <use xlink:href="#path-5"></use>
            </mask>
            <use id="Combined-Shape" fill="#E0383E" xlink:href="#path-5"></use>
        </g>
    </g>
</svg>