<?xml version="1.0" encoding="UTF-8"?>
<svg width="448px" height="270px" viewBox="0 0 448 270" version="1.1" xmlns="http://www.w3.org/2000/svg" xmlns:xlink="http://www.w3.org/1999/xlink">
    <title>Combined Shape</title>
    <g id="ბარათიდან-ბარათზე---done" stroke="none" stroke-width="1" fill="none" fill-rule="evenodd">
        <g id="ბარათიდან-ბარათზე-გადარიცხვა-1" transform="translate(-1136.000000, -523.000000)" fill="#EBEBED">
            <g id="Group" transform="translate(336.000000, -373.000000)">
                <g id="Group-3" transform="translate(0.000000, 776.000000)">
                    <g id="Group-2" transform="translate(0.000000, 120.000000)">
                        <g id="Group" transform="translate(768.000000, 0.000000)">
                            <g id="Group-20" transform="translate(32.000000, 0.000000)">
                                <path d="M432.616689,6.21504185e-16 C437.965801,-3.61111829e-16 439.905519,0.556953667 441.861074,1.60279622 C443.81663,2.64863878 445.351361,4.18337022 446.397204,6.13892578 C447.443046,8.09448133 448,10.0341988 448,15.3833112 L448,254.616689 C448,259.965801 447.443046,261.905519 446.397204,263.861074 C445.351361,265.81663 443.81663,267.351361 441.861074,268.397204 C439.905519,269.443046 437.965801,270 432.616689,270 L15.3833112,270 C10.0341988,270 8.09448133,269.443046 6.13892578,268.397204 C4.18337022,267.351361 2.64863878,265.81663 1.60279622,263.861074 C0.556953667,261.905519 2.34832822e-15,259.965801 -4.04167268e-15,254.616689 L0,151.47 L11.1105536,138.399349 C12.0983531,137.237232 12.3967879,136.688212 12.5772904,136.087488 L12.6098921,135.974084 C12.7883848,135.326188 12.7883848,134.673812 12.6098921,134.025916 C12.4313994,133.37802 12.1600905,132.835401 11.1105536,131.600651 L11.1105536,131.600651 L0,118.529 L4.14336123e-16,15.3833112 C-2.4074122e-16,10.0341988 0.556953667,8.09448133 1.60279622,6.13892578 C2.64863878,4.18337022 4.18337022,2.64863878 6.13892578,1.60279622 C8.09448133,0.556953667 10.0341988,8.88008579e-16 15.3833112,-1.52833832e-15 L432.616689,6.21504185e-16 Z" id="Combined-Shape"></path>
                            </g>
                        </g>
                    </g>
                </g>
            </g>
        </g>
    </g>
</svg>